<?xml version="1.0" encoding="utf-8"?>
<!-- Generator: Adobe Illustrator 25.4.1, SVG Export Plug-In . SVG Version: 6.00 Build 0)  -->
<svg version="1.1" id="Layer_1" xmlns="http://www.w3.org/2000/svg" xmlns:xlink="http://www.w3.org/1999/xlink" x="0px" y="0px"
	 viewBox="0 0 842.9 214.4" style="enable-background:new 0 0 842.9 214.4;" xml:space="preserve">
<style type="text/css">
	.st0{fill:#D2B580;}
</style>
<g id="Layer_2_00000018923946876002491320000003720414275371998626_">
	<g>
		<g id="Layer_1-2_00000103944325228849959870000014326005668172257450_">
			<path class="st0" d="M114.7,154.9c-4.7,7.9-4.1,15.9,0.3,23.6c5.2,9,13.3,14.2,23.4,16.3c13.3,2.7,25.9,0.9,37.3-6.6
				c10-6.6,17.9-15.2,22.8-26.3c0.4-0.9,0.5-1.5-0.4-2.3c-14.3-11.6-23.9-26.7-32.8-42.4c-2.5-4.3-5.3-8.4-8.5-12.2
				c-3.4-4.2-8.6-6.5-14-6.1c-2,0.1-3.9,0-6,0c-0.1,0.7-0.2,1.2-0.2,1.7c0,9.9,0,19.8,0,29.8c0,0.7,0,1.4,0.1,2.1
				c0.5,7,3.7,10.2,10.7,10.5c0.7,0,1.4,0.1,2.2,0.1v2H111V143c1.1-0.1,2.3-0.2,3.4-0.4c4.9-0.7,7.4-3,8.2-7.9
				c0.3-2.1,0.5-4.2,0.5-6.3c0-26.5,0-52.9,0-79.4c0-7.1-3.3-10.5-10.4-10.7c-0.5,0-1,0-1.6-0.1v-2c0.5-0.1,1-0.1,1.5-0.2
				c14.9,0,29.8-0.2,44.6,0c7,0,13.8,1.9,19.8,5.4c9.8,5.9,14.5,14.6,14.1,25.9s-5.6,19.7-15.5,24.9c-4,2.1-8.7,3-13.1,4.6
				c-0.3,0.1-0.7,0.2-1,0.3c0.1,0.2,0.1,0.4,0.2,0.5c7.6,2.7,12.3,8.6,16.3,15.2c3.8,6.2,7.3,12.7,11.2,18.9
				c3.5,5.7,7.3,11.2,10.9,16.7c0.5,0.8,1.3,1.5,2.1,1.9c0.2-2.5,0.7-5,0.7-7.5c0.1-11.4,0.1-22.8,0.1-34.2c0-15.7,0-31.4,0-47.1
				c0-1,0-2,0-3c-0.2-6-3.6-9.5-9.6-10c-0.8-0.1-1.5-0.1-2.4-0.1v-1.9h37.8c0.4,1.1,0.3,1.9-1.2,1.9c-0.2,0-0.4,0-0.6,0
				c-7.2,0.3-10.6,3.7-10.6,10.9c0,23.7,0,47.3-0.1,71c0,8-0.3,16-2.9,23.7c-0.3,0.8-0.5,1.6-0.8,2.4c-1.2,3.2-1.2,3.3,1.5,5.2
				c8.7,6.1,18.2,8.5,28.7,6.9c0.4-0.1,0.9-0.1,1.3-0.2c0.4,0,0.8,0.1,1.1,0.4c-0.4,0.4-0.7,0.9-1.1,1c-2.9,0.8-5.8,1.5-8.7,2
				c-8.2,1-16.5-0.4-23.9-4c-1-0.5-2.1-0.9-3.2-1.4c-1.3,1.7-2.4,3.4-3.7,5c-12.5,15.6-28.4,25.4-48.4,27.5
				c-11.2,1.2-22.3,0.2-32.4-5.4c-7.5-4.1-13.1-9.8-15.1-18.4c-1.7-6.7-0.3-13.8,3.8-19.4c0.5-0.5,1.1-1,1.8-1.4L114.7,154.9z
				 M136.8,68.4L136.8,68.4c0,1.8,0,3.7,0,5.5c0,6.6,0,13.2,0,19.8c0,0.8-0.3,1.9,1.2,1.9c6.8-0.1,13.6,0.5,20.3-1.2
				c7.3-1.8,12.7-5.9,15.6-13c3.1-7.4,3.6-15.7,1.3-23.4c-1.8-6.3-5.3-11.6-11.2-14.8c-7.8-4.3-16.2-4.4-24.7-3.2
				c-1.8,0.3-2.6,1.4-2.6,3.4C136.8,51.7,136.8,60,136.8,68.4L136.8,68.4z"/>
			<path class="st0" d="M402.4,107.1c-6.3,0.7-6.7,1.2-6.7,6.2v7.1c-0.1,2.7,0.1,5.4,0.6,8.1c-6.3,1.2-14.6,3-23.2,3
				c-23.2,0-37.2-12-37.2-29.1c0-17.9,17.6-28.6,38-28.6c10.4,0,18.1,1.7,21.2,2.1c0.2,3.1,0.7,8.3,1.5,13.7l-3,0.5
				c-2.5-7.2-5.4-10.3-11.8-12.1c-3.1-0.7-6.3-1.1-9.5-1.1c-15.6,0-25.7,8.9-25.7,24.5c0,13.5,8.4,26.9,28.2,26.9
				c3,0.1,5.9-0.4,8.7-1.4c2.1-1,3.5-1.9,3.5-5.4v-7c0-6.2-0.8-6.9-10.6-7.5v-2.5h26.2V107.1z"/>
			<path class="st0" d="M491.7,131c-1.3,0-2.5-0.1-3.8-0.2c-7.5-0.4-11.4-2-15.9-7.3c-3.8-4.3-7.5-9.7-10.7-14
				c-2-2.7-3.4-3.2-8.6-3.2h-3.6v13.3c0,7.2,1.1,7.6,9.3,8.3v2.4h-27.2v-2.4c8.5-0.8,9.2-1.1,9.2-8.3V85.7c0-7.2-1.1-7.5-9.2-8.2
				v-2.4h26c7.5,0,12.5,0.8,16.3,2.9c4.2,2.2,6.9,6,6.9,11.2c0,7.3-5.6,11.9-13.2,14.6c1.8,2.6,6.2,8.3,9.3,12.2
				c3.8,4.5,5.7,6.6,8.1,8.8c2.1,2,4.7,3.3,7.5,3.9L491.7,131z M454,103.4c5.3,0,8.7-0.7,11.2-2.5c4-2.5,5.6-5.9,5.6-10.5
				c0-9.1-7.2-12.4-15.1-12.4c-3,0-4.7,0.3-5.4,0.9c-0.9,0.6-1.2,1.4-1.2,3.7v20.8H454z"/>
			<path class="st0" d="M569.5,116.8c-0.6,2.2-3.4,11-4.4,13.5h-49.6v-2.4c9.5-0.6,10.2-1.4,10.2-8.3V86.1c0-7.6-1.1-8-8.8-8.6v-2.4
				h31.2c9.6,0,13.6-0.1,14.8-0.2c0.1,2.1,0.5,8.5,0.9,13l-3,0.4c-0.7-2.3-1.7-4.5-3-6.5c-1.6-2.8-4-3.4-10.1-3.4h-9.7
				c-3.2,0-3.4,0.3-3.4,2.7V100h11.3c7.7,0,8.2-1.3,9.4-7h3.2v17.5h-3.2c-1.3-6.1-2.1-7-9.5-7h-11.2v16.9c0,5.9,2.3,6.5,7.3,6.5h9.5
				c6.2,0,7.2-0.8,9.5-3c1.9-1.8,4.1-5.3,5.5-7.8L569.5,116.8z"/>
			<path class="st0" d="M657.9,131c-1.3,0-2.5-0.1-3.8-0.2c-7.5-0.4-11.4-2-15.9-7.3c-3.8-4.3-7.5-9.7-10.7-14
				c-2-2.7-3.4-3.2-8.6-3.2h-3.6v13.3c0,7.2,1.1,7.6,9.3,8.3v2.4h-27.2v-2.4c8.5-0.8,9.2-1.1,9.2-8.3V85.7c0-7.2-1.1-7.5-9.2-8.2
				v-2.4h26c7.5,0,12.5,0.8,16.3,2.9c4.2,2.2,6.9,6,6.9,11.2c0,7.3-5.6,11.9-13.2,14.6c1.8,2.6,6.2,8.3,9.3,12.2
				c2.5,3.1,5.2,6,8.1,8.7c2.1,2,4.7,3.3,7.5,3.9L657.9,131z M620.3,103.4c5.3,0,8.7-0.7,11.2-2.5c4-2.5,5.6-5.9,5.6-10.5
				c0-9.1-7.2-12.4-15.1-12.4c-3,0-4.7,0.3-5.4,0.9c-0.9,0.6-1.2,1.4-1.2,3.7v20.8H620.3z"/>
			<path class="st0" d="M716.7,73.9c17.5,0,33.1,11.1,33.1,28c0,18.3-14.9,29.7-33.7,29.7c-19.6,0-33.9-12.4-33.9-28.4
				C682.2,88,695.2,73.9,716.7,73.9z M714.7,77c-11.4,0-21.8,8-21.8,23.9s10.4,27.4,24.9,27.4c12.3,0,21.6-7.6,21.6-24
				C739.4,86.5,728.1,77,714.7,77z"/>
			<rect x="276.9" y="43.4" class="st0" width="3.8" height="112.3"/>
		</g>
	</g>
</g>
</svg>
